<svg width="100" height="33" viewBox="0 0 100 33" fill="none" xmlns="http://www.w3.org/2000/svg">
  <g clip-path="url(#clip0_33_3094)">
    <path d="M59.4043 5.32387C59.4043 5.09974 59.4661 4.92309 59.5887 4.79391C59.7113 4.66583 59.8593 4.59628 60.0304 4.58524H75.3904C75.6367 4.58524 75.8211 4.65479 75.9437 4.7928C76.0663 4.93192 76.1281 5.11851 76.1281 5.35257V9.32066C76.1281 9.50173 76.064 9.67507 75.9359 9.84068C75.8078 10.0063 75.6201 10.0891 75.3738 10.0891H65.6161V15.063H72.8229C73.0261 15.063 73.1972 15.1193 73.3364 15.2319C73.4755 15.3445 73.5451 15.5234 73.5451 15.7696V19.6052C73.5451 19.7874 73.4833 19.9607 73.3607 20.1263C73.237 20.2919 73.0691 20.3748 72.8549 20.3748H65.6161V27.7235C65.6161 28.184 65.3698 28.4136 64.8773 28.4136H59.9819C59.5964 28.3606 59.4043 28.1354 59.4043 27.7401V5.32387Z" fill="#B60000" />
    <path d="M95.132 11.3091C94.5864 10.9238 94.0034 10.6246 93.3827 10.4104C92.7621 10.1962 92.0984 10.0891 91.3927 10.0891C90.5049 10.0891 89.691 10.258 88.9533 10.5948C88.2145 10.9315 87.5806 11.3886 87.0517 11.9671C86.5216 12.5446 86.1075 13.2214 85.8082 13.9975C85.5089 14.7737 85.3588 15.5996 85.3588 16.4762C85.3588 17.3529 85.5089 18.1776 85.8082 18.9472C86.1075 19.7178 86.5227 20.3891 87.0517 20.961C87.5817 21.5329 88.2156 21.9856 88.9533 22.3168C89.6921 22.6481 90.5049 22.8148 91.3927 22.8148C91.7671 22.8148 92.1393 22.7883 92.5081 22.7342C92.8769 22.6812 93.2701 22.6116 93.6875 22.5255V18.3211C93.6875 18.118 93.746 17.9491 93.8642 17.8155C93.9813 17.6819 94.158 17.6145 94.3943 17.6145H98.7597C98.9198 17.6145 99.091 17.6786 99.2732 17.8066C99.4554 17.9347 99.5459 18.1058 99.5459 18.32V26.0862C99.5459 26.3754 99.3902 26.6106 99.081 26.7928C98.5774 27.1351 98.022 27.4298 97.4113 27.675C96.8017 27.9212 96.1645 28.1243 95.5019 28.2844C94.8382 28.4445 94.1668 28.5648 93.4876 28.6454C92.8085 28.726 92.1481 28.7658 91.5054 28.7658C90.3712 28.7658 89.2824 28.6212 88.2388 28.333C87.1952 28.0437 86.219 27.633 85.3102 27.0975C84.4002 26.5631 83.5742 25.9239 82.831 25.1797C82.0867 24.4367 81.4484 23.613 80.9128 22.7088C80.3772 21.8045 79.9653 20.8318 79.677 19.7885C79.3877 18.7451 79.2441 17.6576 79.2441 16.5226C79.2441 15.3876 79.3888 14.3001 79.677 13.2567C79.9664 12.2133 80.3783 11.2351 80.9128 10.3198C81.4473 9.40566 82.0867 8.57318 82.831 7.82461C83.5742 7.07604 84.4013 6.43677 85.3102 5.90681C86.219 5.37685 87.1963 4.96613 88.2388 4.67134C89.2824 4.37765 90.3701 4.22971 91.5054 4.22971C92.7897 4.22971 94.0011 4.40857 95.1408 4.7674C96.2805 5.12622 97.3527 5.64183 98.3588 6.31643C98.541 6.42352 98.6801 6.56485 98.7762 6.7415C98.8723 6.91815 98.8513 7.1191 98.7122 7.34323L96.1126 11.0982C95.9735 11.2694 95.8343 11.3842 95.6952 11.4427C95.556 11.5012 95.3683 11.4559 95.1331 11.3058L95.132 11.3091Z" fill="#B60000" />
    <path d="M35.908 3.93382C36.0195 3.7914 36.1874 3.71853 36.4105 3.71853H38.1641V2.86065C38.1641 1.28071 37.0333 -3.05176e-05 35.6363 -3.05176e-05H2.52889C1.13193 -3.05176e-05 0 1.28071 0 2.86065V30.1382C0 31.7181 1.13193 33 2.52889 33H35.6363C37.0333 33 38.1641 31.7181 38.1641 30.1382V29.2814H36.4105C36.2073 29.2814 36.0449 29.2207 35.9235 29.1003C35.802 28.9789 35.7413 28.7934 35.7413 28.5406V4.51126C35.7413 4.26947 35.7965 4.07736 35.908 3.93382ZM10.1476 27.7081C10.1476 28.1795 9.88475 28.4147 9.36131 28.4147H4.64255C4.17101 28.4147 3.93579 28.1795 3.93579 27.7081V5.29074C3.93579 5.09863 3.99432 4.93302 4.11248 4.79391C4.23064 4.65479 4.40733 4.58523 4.64255 4.58523H9.36131C9.52143 4.58523 9.6926 4.64927 9.87481 4.77735C10.0559 4.90652 10.1476 5.07766 10.1476 5.29074V27.7081ZM32.8104 9.27318C32.8104 9.46529 32.743 9.64967 32.6094 9.82522C32.4758 10.0008 32.2858 10.0891 32.0396 10.0891H26.5025V27.6595C26.5025 27.8516 26.433 28.0261 26.2938 28.1817C26.1547 28.3363 25.9736 28.4147 25.7494 28.4147H21.0428C20.8617 28.4147 20.6905 28.3418 20.5304 28.1972C20.3714 28.0526 20.2907 27.8737 20.2907 27.6595V10.0891H14.7703C14.556 10.0891 14.3771 10.0195 14.2325 9.88153C14.0878 9.74242 14.0149 9.54037 14.0149 9.27318V5.28964C14.0149 5.07655 14.0878 4.90542 14.2325 4.77735C14.3771 4.64927 14.556 4.58523 14.7703 4.58523H32.0396C32.2317 4.58523 32.4029 4.64375 32.5531 4.76078C32.7033 4.87892 32.7883 5.05447 32.8104 5.28964V9.27318Z" fill="#2C2C2C" />
  </g>
  <path d="M36.7266 5.32387C36.7266 5.09974 36.7851 4.91977 36.9033 4.78618C37.0203 4.65258 37.197 4.58524 37.4333 4.58524H47.8018C48.9039 4.58524 49.9364 4.7917 50.8994 5.20352C51.8623 5.61535 52.7027 6.17401 53.4194 6.88063C54.1361 7.58724 54.7004 8.4131 55.1124 9.3593C55.5243 10.3066 55.7308 11.3146 55.7308 12.3845C55.7308 13.1121 55.6314 13.8043 55.4337 14.4624C55.236 15.1204 54.96 15.7354 54.6077 16.3073C54.2543 16.8792 53.8347 17.3981 53.3477 17.8641C52.8607 18.3289 52.3284 18.7286 51.7508 19.0598L55.8754 26.8259C55.9505 26.9761 56.0466 27.1527 56.1648 27.3559C56.2829 27.559 56.3415 27.7357 56.3415 27.8858C56.3415 28.057 56.2851 28.1884 56.1725 28.2789C56.0599 28.3694 55.9075 28.4158 55.7153 28.4158H50.2103C50.0281 28.4158 49.8657 28.3628 49.7211 28.2557C49.5764 28.1486 49.4825 28.004 49.4406 27.8229L45.5401 20.4896H42.9406V27.7269C42.9406 28.1873 42.6943 28.4169 42.2018 28.4169H37.4344C37.2202 28.4169 37.049 28.3606 36.9209 28.248C36.7928 28.1354 36.7288 27.962 36.7288 27.7269V5.32387H36.7266ZM49.2937 12.4485C49.2937 12.1272 49.2352 11.8071 49.117 11.4858C48.9988 11.1645 48.8332 10.8708 48.619 10.6036C48.4047 10.3364 48.1485 10.1112 47.8482 9.93011C47.5489 9.74794 47.2165 9.6309 46.8532 9.5768C46.5539 9.55583 46.2723 9.53706 46.0106 9.5205C45.7477 9.50394 45.4617 9.49621 45.1514 9.49621H42.9361V15.3854H45.8891C46.0812 15.3854 46.2524 15.3799 46.4026 15.3688C46.5528 15.3589 46.7184 15.3423 46.9006 15.3203C47.275 15.2772 47.6118 15.1679 47.9122 14.9912C48.2115 14.8146 48.4633 14.596 48.6665 14.3332C48.8696 14.0715 49.0254 13.7767 49.1314 13.451C49.2385 13.1253 49.2915 12.7908 49.2915 12.4485H49.2937Z" fill="#B60000" />
  <defs>
    <clipPath id="clip0_33_3094">
      <rect width="99.5455" height="33" fill="white" />
    </clipPath>
  </defs>
</svg>